<svg xmlns="http://www.w3.org/2000/svg" width="30" height="30" viewBox="0 0 30 30"><path fill="#FD0202" d="M28.356 28.278c1.02-1.04 1.644-2.3 1.644-3.794 0-1.488-1.212-2.802-1.825-4.116-1.283-2.773-1.301-4.963-1.301-5.365 0-.401.006-2.575 1.301-5.364.613-1.316 1.825-2.629 1.825-4.118 0-1.494-.624-2.754-1.644-3.792l-.065-.065c-1.045-1.034-2.311-1.664-3.811-1.664-1.487 0-2.802 1.212-4.116 1.824-2.779 1.291-4.969 1.303-5.371 1.303-.402 0-2.586.006-5.358-1.303-1.313-.624-2.627-1.824-4.115-1.824-1.494 0-2.754.624-3.792 1.644l-.078.078c-1.026 1.039-1.65 2.305-1.65 3.799 0 1.488 1.212 2.803 1.824 4.116 1.297 2.791 1.302 4.969 1.302 5.365 0 .395-.018 2.58-1.302 5.365-.606 1.321-1.824 2.629-1.824 4.117 0 1.494.624 2.754 1.644 3.794l.065.065c1.039 1.027 2.305 1.657 3.805 1.657 1.488 0 2.837-1.141 4.116-1.825 2.778-1.283 4.974-1.302 5.363-1.302.391 0 2.563.013 5.364 1.302 1.28.684 2.627 1.825 4.118 1.825 1.493 0 2.754-.624 3.797-1.65l.084-.072z"/></svg>